<?xml version="1.0" encoding="UTF-8" standalone="no"?>
<!-- Created with Inkscape (http://www.inkscape.org/) -->

<svg
   width="120"
   height="120"
   viewBox="0 0 120 120"
   version="1.1"
   id="svg1"
   inkscape:version="1.3 (0e150ed6c4, 2023-07-21)"
   sodipodi:docname="userpic.svg"
   xmlns:inkscape="http://www.inkscape.org/namespaces/inkscape"
   xmlns:sodipodi="http://sodipodi.sourceforge.net/DTD/sodipodi-0.dtd"
   xmlns="http://www.w3.org/2000/svg"
   xmlns:svg="http://www.w3.org/2000/svg"
   xmlns:rdf="http://www.w3.org/1999/02/22-rdf-syntax-ns#"
   xmlns:cc="http://creativecommons.org/ns#"
   xmlns:dc="http://purl.org/dc/elements/1.1/">
  <title
     id="title5">userpic</title>
  <sodipodi:namedview
     id="namedview1"
     pagecolor="#ffffff"
     bordercolor="#000000"
     borderopacity="0.25"
     inkscape:showpageshadow="2"
     inkscape:pageopacity="0.0"
     inkscape:pagecheckerboard="0"
     inkscape:deskcolor="#d1d1d1"
     inkscape:document-units="px"
     showgrid="true"
     inkscape:zoom="5.527218"
     inkscape:cx="49.934705"
     inkscape:cy="57.352542"
     inkscape:window-width="1920"
     inkscape:window-height="1147"
     inkscape:window-x="-4"
     inkscape:window-y="-4"
     inkscape:window-maximized="1"
     inkscape:current-layer="layer1">
    <inkscape:grid
       id="grid1"
       units="px"
       originx="0"
       originy="0"
       spacingx="1"
       spacingy="1"
       empcolor="#0099e5"
       empopacity="0.30196078"
       color="#0099e5"
       opacity="0.14901961"
       empspacing="5"
       dotted="false"
       gridanglex="30"
       gridanglez="30"
       visible="true" />
  </sodipodi:namedview>
  <defs
     id="defs1" />
  <g
     inkscape:label="Слой 1"
     inkscape:groupmode="layer"
     id="layer1">
    <circle
       style="fill:#ffffff;stroke-width:5"
       id="path1-2"
       cx="60"
       cy="45"
       r="20" />
    <path
       id="path2-1"
       style="fill:#ffffff;stroke-width:4.80937"
       d="m 10.333984,107.71354 c 0.434221,0.46112 0.885308,0.90847 1.363282,1.33333 0.517752,0.46023 1.059545,0.89805 1.625,1.31251 0.565455,0.41446 1.154296,0.80653 1.763672,1.17187 0.609375,0.36534 1.239156,0.70451 1.888671,1.01736 0.649515,0.31285 1.318034,0.5989 2.003907,0.85591 0.685872,0.257 1.388973,0.48449 2.107422,0.68229 0.718448,0.19779 1.453928,0.36477 2.201171,0.5 0.747244,0.13522 1.507041,0.23973 2.279297,0.30902 0.772257,0.0693 1.556122,0.10417 2.34961,0.10417 h 64.167968 c 0.793488,0 1.577354,-0.0349 2.34961,-0.10417 0.772256,-0.0693 1.532053,-0.1738 2.279297,-0.30902 0.747243,-0.13523 1.482723,-0.30221 2.201171,-0.5 0.718449,-0.1978 1.421548,-0.42529 2.107418,-0.68229 0.68588,-0.25701 1.3544,-0.54306 2.00391,-0.85591 0.64952,-0.31285 1.2793,-0.65202 1.88867,-1.01736 0.60938,-0.36534 1.19822,-0.75741 1.76367,-1.17187 0.56546,-0.41446 1.10725,-0.85228 1.625,-1.31251 0.51416,-0.45702 1.0034,-0.93516 1.4668,-1.43403 A 49.951027,35.555548 0 0 0 60,75 49.951027,35.555548 0 0 0 10.333984,107.71354 Z" />
    <path
       id="path5"
       style="fill:#000000;stroke-width:5.10111"
       d="m -129.52148,85.89258 a 49.951027,39.999992 0 0 0 49.4707,34.61328 49.951027,39.999992 0 0 0 49.4707,-34.61328 c -0.16131,0.11448 -0.31046,0.24476 -0.47461,0.35547 -0.66479,0.44839 -1.35196,0.86603 -2.06054,1.25 -0.70858,0.38397 -1.43731,0.7334 -2.18555,1.04883 -0.74824,0.31543 -1.51701,0.59513 -2.30078,0.83789 C -38.38534,89.62753 -39.18481,89.83403 -40,90 c -0.815183,0.16597 -1.645813,0.29191 -2.48828,0.37695 -0.842467,0.08505 -1.696876,0.12891 -2.5625,0.12891 h -70 c -0.86562,0 -1.72003,-0.04386 -2.5625,-0.12891 -0.84247,-0.08504 -1.6731,-0.21098 -2.48828,-0.37695 -0.81519,-0.16597 -1.61466,-0.37247 -2.39844,-0.61523 -0.78378,-0.24276 -1.55254,-0.52246 -2.30078,-0.83789 -0.74824,-0.31543 -1.47697,-0.66486 -2.18555,-1.04883 -0.70858,-0.38397 -1.39575,-0.80161 -2.06054,-1.25 -0.16415,-0.11071 -0.3133,-0.24099 -0.47461,-0.35547 z" />
    <path
       id="path4"
       style="fill:#000000;stroke-width:5.10111"
       d="m -151.91992,61.50781 c 0.16131,0.11448 0.31046,0.24476 0.47461,0.35547 0.66479,0.44839 1.35196,0.86603 2.06054,1.25 0.70858,0.38397 1.43731,0.7334 2.18555,1.04883 0.74824,0.31543 1.51701,0.59513 2.30078,0.83789 0.78378,0.24276 1.58325,0.44926 2.39844,0.61523 0.81518,0.16597 1.64581,0.29191 2.48828,0.37695 0.84247,0.08505 1.69688,0.12891 2.5625,0.12891 h 70 c 0.865624,0 1.720033,-0.04386 2.5625,-0.12891 0.842467,-0.08504 1.673097,-0.21098 2.48828,-0.37695 C -61.58325,65.44926 -60.78378,65.24276 -60,65 c 0.78377,-0.24276 1.55254,-0.52246 2.30078,-0.83789 0.74824,-0.31543 1.47697,-0.66486 2.18555,-1.04883 0.70858,-0.38397 1.39575,-0.80161 2.06054,-1.25 0.16415,-0.11071 0.3133,-0.24099 0.47461,-0.35547 a 49.951027,39.999992 0 0 0 0.48047,-5.38672 49.951027,39.999992 0 0 0 -0.18164,-3.31055 c -0.4634,0.56122 -0.95264,1.09913 -1.4668,1.61328 -0.51775,0.51776 -1.05954,1.0103 -1.625,1.47657 -0.56545,0.46627 -1.15429,0.90735 -1.76367,1.31836 -0.60937,0.411 -1.23915,0.79257 -1.88867,1.14453 -0.64951,0.35195 -1.31803,0.67376 -2.00391,0.96289 -0.68587,0.28913 -1.388969,0.54506 -2.107418,0.76758 -0.718448,0.22252 -1.453928,0.41037 -2.201171,0.5625 -0.747244,0.15212 -1.507041,0.2697 -2.279297,0.34765 -0.772256,0.07796 -1.556122,0.11719 -2.34961,0.11719 H -134.5332 c -0.79349,0 -1.57736,-0.03923 -2.34961,-0.11719 -0.77226,-0.07795 -1.53206,-0.19553 -2.2793,-0.34765 -0.74724,-0.15213 -1.48272,-0.33998 -2.20117,-0.5625 -0.71845,-0.22252 -1.42155,-0.47845 -2.10742,-0.76758 -0.68588,-0.28913 -1.3544,-0.61094 -2.00391,-0.96289 -0.64952,-0.35196 -1.2793,-0.73353 -1.88867,-1.14453 -0.60938,-0.41101 -1.19822,-0.85209 -1.76367,-1.31836 -0.56546,-0.46627 -1.10725,-0.95881 -1.625,-1.47657 -0.47798,-0.47797 -0.92906,-0.98124 -1.36329,-1.5 a 49.951027,39.999992 0 0 0 -0.28515,3.19727 49.951027,39.999992 0 0 0 0.48047,5.38672 z" />
    <path
       id="rect1-7"
       style="fill:#ffffff;stroke-width:5"
       d="m -110,-32.916016 c -13.84999,0 -25,11.150014 -25,25 v 69.999998 c 0,13.849992 11.15001,25.000002 25,25.000002 h 70 c 13.84999,0 25,-11.15001 25,-25.000002 V -7.916016 c 0,-13.849986 -11.15001,-25 -25,-25 z m 2.91602,5 h 64.16796 C -30.2202,-27.916016 -20,-17.695821 -20,-5 v 64.167962 c 0,12.695822 -10.2202,22.916022 -22.91602,22.916022 h -64.16796 C -119.77981,82.083984 -130,71.863784 -130,59.167962 V -5 c 0,-12.695821 10.22019,-22.916016 22.91602,-22.916016 z" />
  </g>
  <metadata
     id="metadata5">
    <rdf:RDF>
      <cc:Work
         rdf:about="">
        <dc:title>userpic</dc:title>
      </cc:Work>
    </rdf:RDF>
  </metadata>
</svg>
